<?xml version="1.0" encoding="utf-8"?>
<!-- Generator: Adobe Illustrator 24.0.3, SVG Export Plug-In . SVG Version: 6.00 Build 0)  -->
<svg version="1.1" id="Layer_1" xmlns="http://www.w3.org/2000/svg" xmlns:xlink="http://www.w3.org/1999/xlink" x="0px" y="0px"
	 width="30px" height="30px" viewBox="0 0 30 30" style="enable-background:new 0 0 30 30;" xmlSpace="preserve">
<g id="_x3C_path_x3E_">
	<path d="M27.288,7.51c-0.904,0.385-1.865,0.654-2.904,0.788c1.058-0.635,1.846-1.596,2.231-2.769
		c-0.981,0.577-2.077,0.981-3.212,1.212C22.5,5.76,21.173,5.163,19.712,5.163c-2.769,0-5.038,2.231-5.038,4.962
		c0,0.404,0.077,0.769,0.154,1.135c-4.212-0.192-7.923-2.173-10.404-5.192C4,6.817,3.731,7.663,3.731,8.567
		c0,1.731,0.904,3.25,2.25,4.135c-0.827-0.019-1.596-0.25-2.288-0.615c0,0.019,0,0.038,0,0.058c0,0.635,0.115,1.231,0.346,1.788
		c0.615,1.558,2.019,2.731,3.712,3.077c-0.442,0.115-0.865,0.192-1.327,0.192c-0.327,0-0.635-0.038-0.942-0.115
		C6.135,19.067,8,20.51,10.192,20.548c-1.731,1.327-3.904,2.115-6.269,2.115c-0.423,0-0.808-0.019-1.212-0.058
		c2.25,1.404,4.904,2.231,7.75,2.231c7.885,0,12.769-5.462,14.038-11.135c0.231-1.019,0.327-2.019,0.327-3c0-0.212,0-0.442,0-0.635
		C25.75,9.375,26.615,8.49,27.288,7.51z"/>
</g>
</svg>
