<svg xmlns="http://www.w3.org/2000/svg" width="30" height="30"><path d="M27.288 7.51c-.904.385-1.865.654-2.904.788a5.053 5.053 0 002.231-2.769c-.981.577-2.077.981-3.212 1.212-.903-.981-2.23-1.578-3.691-1.578-2.769 0-5.038 2.231-5.038 4.962 0 .404.077.769.154 1.135A14.261 14.261 0 014.424 6.068c-.424.749-.693 1.595-.693 2.499 0 1.731.904 3.25 2.25 4.135a5.137 5.137 0 01-2.288-.615v.058c0 .635.115 1.231.346 1.788.615 1.558 2.019 2.731 3.712 3.077a5.158 5.158 0 01-1.327.192c-.327 0-.635-.038-.942-.115a5.063 5.063 0 004.71 3.461 10.264 10.264 0 01-6.269 2.115c-.423 0-.808-.019-1.212-.058a14.599 14.599 0 007.75 2.231c7.885 0 12.769-5.462 14.038-11.135a13.5 13.5 0 00.327-3v-.635a11.082 11.082 0 002.462-2.556z"/></svg>